<svg width="214" height="108" viewBox="0 0 214 108" fill="none" xmlns="http://www.w3.org/2000/svg">
<path fill-rule="evenodd" clip-rule="evenodd" d="M142.001 69.6766H72.3242V0H142.001V69.6766Z" fill="#128CDB"/>
<path fill-rule="evenodd" clip-rule="evenodd" d="M100.801 29.6913C98.3714 30.1263 96.5586 32.2743 96.5586 34.8119C96.5586 37.4039 98.3714 39.6063 100.801 39.9869L99.4773 42.4702L102.006 41.147C102.006 41.147 102.777 45.4429 107.137 45.4429C109.72 45.4429 111.868 43.6212 112.312 41.2014L114.841 42.4702L113.518 39.9869C115.947 39.5428 117.76 37.3949 117.76 34.8119C117.76 32.2743 116.001 30.1263 113.463 29.6913L114.841 27.1536L112.312 28.4769C111.705 25.9936 109.774 24.2354 107.137 24.2354C102.84 24.2354 102.006 28.4769 102.006 28.4769L99.4773 27.1536L100.801 29.6913ZM110.989 38.6637C110.989 41.2014 110.653 43.9021 107.137 43.9021C104.435 43.9021 102.613 41.2014 103.33 38.6637C100.801 39.3797 98.0995 37.5671 98.0995 34.8119C98.0995 32.0568 100.855 30.2985 103.33 31.0145C102.613 28.4769 104.435 25.7761 107.137 25.7761C109.883 25.7761 111.705 28.4769 110.989 31.0145C113.463 30.2985 116.219 32.0568 116.219 34.8119C116.219 37.5671 113.518 39.3797 110.989 38.6637Z" fill="white"/>
<path fill-rule="evenodd" clip-rule="evenodd" d="M104.326 32.002L107.136 33.4883L110 32.002L108.45 34.8115L110 37.6754L107.136 36.1347L104.326 37.6754L105.813 34.8115L104.326 32.002Z" fill="white"/>
<path fill-rule="evenodd" clip-rule="evenodd" d="M125.808 29.2474C125.473 28.8668 124.866 28.8668 124.539 29.2474L120.188 33.5977L118.919 34.8121L118.648 35.1384C118.593 35.7456 118.475 36.2984 118.258 36.7969L118.865 37.4041L120.188 36.0809L124.539 40.4312C124.866 40.7575 125.473 40.7575 125.808 40.4312C126.135 40.0959 126.135 39.5521 125.808 39.1624L121.457 34.8121L125.808 30.4618C126.135 30.1265 126.135 29.5827 125.808 29.2474Z" fill="white"/>
<path fill-rule="evenodd" clip-rule="evenodd" d="M100.302 29.2477L99.6402 28.0332L99.3683 28.3142L98.0449 29.6374L98.3712 30.018C98.9785 29.6374 99.6402 29.3564 100.302 29.2477Z" fill="white"/>
<path fill-rule="evenodd" clip-rule="evenodd" d="M112.369 24.3439L119.194 17.5194C119.529 17.1841 119.529 16.6312 119.194 16.305C118.813 15.9153 118.26 15.9153 117.934 16.305L111.1 23.0751L112.369 24.3439Z" fill="white"/>
<path fill-rule="evenodd" clip-rule="evenodd" d="M98.7079 27.6531L99.1974 27.1546L98.871 26.5474L99.4783 26.8828L99.9678 26.3843L89.8884 16.3062C89.5621 15.9709 89.0092 15.9709 88.6285 16.3062C88.2931 16.6868 88.2931 17.2397 88.6285 17.575L98.7079 27.6531Z" fill="white"/>
<path fill-rule="evenodd" clip-rule="evenodd" d="M105.261 47.2554L103.883 45.8778L96.3869 53.3729C96.0062 53.6992 95.4533 53.6992 95.127 53.3729C94.7916 53.0376 94.7916 52.4938 95.127 52.1041L102.614 44.618L100.629 42.6332L89.8879 53.3185C89.5616 53.6992 89.0087 53.6992 88.628 53.3185C88.2926 52.9832 88.2926 52.4394 88.628 52.1041L99.3691 41.3644L97.384 39.3252L89.8335 46.8747C89.5072 47.201 88.9543 47.201 88.628 46.8747C88.2382 46.5394 88.2382 45.9322 88.628 45.6059L96.115 38.1198L94.1299 36.0806L89.7791 40.4309C89.3984 40.7572 88.8455 40.7572 88.5101 40.4309C88.1294 40.0956 88.1294 39.5518 88.5101 39.1621L96.115 31.5582L88.628 24.0721C88.2382 23.7368 88.2382 23.1296 88.628 22.8033C88.9543 22.477 89.5072 22.477 89.8335 22.8033L97.384 30.2984L97.6015 30.5703C96.5048 31.5038 95.7887 32.9358 95.6709 34.5309L95.3446 34.8118L95.6709 35.1381C95.8431 37.7845 97.7647 39.9324 100.303 40.4309L98.8705 43.1317L101.572 41.6997C102.007 44.0108 103.883 45.8778 106.303 46.2131L105.261 47.2554Z" fill="white"/>
<path fill-rule="evenodd" clip-rule="evenodd" d="M102.614 25.0599L95.1265 17.5194C94.7912 17.1841 94.7912 16.6312 95.1265 16.305C95.4528 15.9153 96.0058 15.9153 96.3865 16.305L103.275 23.1929L104.272 24.1264C102.895 24.9511 101.843 26.3831 101.571 27.9782L100.357 27.3166L100.629 27.0447H100.683L102.614 25.0599Z" fill="white"/>
<path fill-rule="evenodd" clip-rule="evenodd" d="M92.2083 34.2049L93.4683 32.9361L89.7791 29.2474C89.3984 28.8668 88.8455 28.8668 88.5101 29.2474C88.1294 29.5827 88.1294 30.1265 88.5101 30.4618L92.2083 34.1505V34.2049Z" fill="white"/>
<path fill-rule="evenodd" clip-rule="evenodd" d="M105.261 21.1543L106.475 19.8855L102.841 16.1968C102.451 15.8615 101.898 15.8615 101.572 16.1968C101.182 16.5231 101.182 17.0759 101.572 17.4656L105.261 21.1543Z" fill="white"/>
<path fill-rule="evenodd" clip-rule="evenodd" d="M124.433 46.8741L116.937 39.3246L114.961 41.3638L125.647 52.1035C126.028 52.4388 126.028 52.9826 125.647 53.3179C125.312 53.6986 124.759 53.6986 124.378 53.3179L113.692 42.6326L112.368 43.9558L111.979 43.5661C112.368 43.0132 112.586 42.3516 112.749 41.6991L115.45 43.1311L114.018 40.4303C115.613 40.0949 116.991 39.1071 117.825 37.7295L118.206 38.1192L118.595 38.4455L125.702 45.6053C126.082 45.9315 126.082 46.5388 125.702 46.8741C125.366 47.2004 124.813 47.2004 124.433 46.8741Z" fill="white"/>
<path fill-rule="evenodd" clip-rule="evenodd" d="M111.433 44.3916C110.436 45.4973 109.059 46.2133 107.463 46.322L107.137 46.5939L105.922 47.8627L101.572 52.213C101.182 52.5483 101.182 53.1556 101.572 53.4818C101.898 53.8172 102.451 53.8172 102.832 53.4818L107.137 49.1316L111.488 53.4818C111.869 53.8172 112.421 53.8172 112.748 53.4818C113.083 53.1556 113.083 52.5483 112.748 52.213L108.397 47.8627L110.436 45.8779L117.933 53.3731C118.259 53.6993 118.812 53.6993 119.192 53.3731C119.528 53.0377 119.528 52.494 119.192 52.1042L112.15 45.0532L111.433 44.3916Z" fill="white"/>
<path fill-rule="evenodd" clip-rule="evenodd" d="M125.699 22.8033C126.08 23.1296 126.08 23.7368 125.699 24.0721L118.865 30.8966L117.65 29.6368L124.43 22.8033C124.811 22.477 125.364 22.477 125.699 22.8033Z" fill="white"/>
<path fill-rule="evenodd" clip-rule="evenodd" d="M104.6 23.0757L111.488 16.1968C111.869 15.8615 112.422 15.8615 112.748 16.1968C113.084 16.5231 113.084 17.0759 112.748 17.4656L108.398 21.7615L113.691 27.0453L124.378 16.3056C124.758 15.9702 125.311 15.9702 125.638 16.3056C126.027 16.6862 126.027 17.2391 125.638 17.5744L114.951 28.3141L119.583 32.9362L118.595 33.9332C118.205 31.5587 116.329 29.6917 114.017 29.2476L115.449 26.5468L112.748 27.9788C112.259 25.4502 110.111 23.5197 107.464 23.3566L107.129 23.0213L106.802 23.3566C106.249 23.411 105.696 23.5197 105.207 23.6829L104.6 23.0757Z" fill="white"/>
<path fill-rule="evenodd" clip-rule="evenodd" d="M137.429 4.56801H76.8895V65.1H137.429V4.56801ZM76.2278 3.19043H138.753V66.4232H75.5117V3.19043H76.2278Z" fill="white"/>
<path fill-rule="evenodd" clip-rule="evenodd" d="M112.639 29.5817H112.803H112.92H113.029C112.866 29.5817 112.694 29.5817 112.531 29.5817H112.422V29.4639V29.5817H112.531H112.639Z" fill="white"/>
<path fill-rule="evenodd" clip-rule="evenodd" d="M112.365 28.9199V29.0831L112.42 29.1918V29.3006V29.4637C112.42 29.3006 112.42 29.1374 112.365 28.9199Z" fill="white"/>
<path fill-rule="evenodd" clip-rule="evenodd" d="M101.68 40.0954H101.517L101.409 40.041H101.236C101.409 40.0954 101.626 40.0954 101.789 40.0954H101.898V40.2042V40.1498V40.0954H101.789H101.68Z" fill="white"/>
<path fill-rule="evenodd" clip-rule="evenodd" d="M101.951 40.7026L101.896 40.5938V40.4851V40.4307V40.3219V40.2041C101.896 40.3763 101.896 40.5394 101.951 40.7026Z" fill="white"/>
<path fill-rule="evenodd" clip-rule="evenodd" d="M112.42 40.3219V40.4307V40.4851L112.365 40.5938V40.7026C112.42 40.5394 112.42 40.3763 112.42 40.2041V40.3219Z" fill="white"/>
<path fill-rule="evenodd" clip-rule="evenodd" d="M113.029 40.041H112.92L112.803 40.0954H112.639H112.531H112.422V40.1498V40.2042V40.0954H112.531C112.694 40.0954 112.866 40.0954 113.029 40.041Z" fill="white"/>
<path d="M75.5427 74.6146H76.5623L79.2168 81.4434H78.0819L77.3605 79.5871H74.7252L74.0135 81.4434H72.869L75.5427 74.6146ZM77.149 78.7888L76.0525 75.7976L74.9176 78.7888H77.149ZM79.3655 77.9809C79.3655 77.5641 79.4393 77.157 79.5867 76.7594C79.7342 76.3555 79.949 75.99 80.2311 75.663C80.5197 75.3295 80.8691 75.0666 81.2795 74.8743C81.6899 74.6755 82.1547 74.5761 82.6741 74.5761C83.2896 74.5761 83.8218 74.7172 84.2707 74.9993C84.7195 75.275 85.0529 75.6309 85.2709 76.0669L84.4246 76.6344C84.2963 76.3587 84.1328 76.1407 83.934 75.9804C83.7417 75.8201 83.5301 75.7078 83.2993 75.6437C83.0748 75.5796 82.8536 75.5475 82.6356 75.5475C82.2766 75.5475 81.9624 75.6213 81.6931 75.7688C81.4238 75.9098 81.1961 76.099 81.0102 76.3362C80.8307 76.5735 80.6928 76.8396 80.5966 77.1345C80.5068 77.4295 80.462 77.7244 80.462 78.0194C80.462 78.3464 80.5165 78.6638 80.6255 78.9715C80.7345 79.2729 80.8852 79.5422 81.0775 79.7795C81.2763 80.0103 81.5103 80.193 81.7796 80.3277C82.0489 80.4623 82.3439 80.5297 82.6645 80.5297C82.8825 80.5297 83.1101 80.4912 83.3474 80.4142C83.5846 80.3373 83.8026 80.2187 84.0014 80.0584C84.2066 79.8917 84.3669 79.6737 84.4823 79.4043L85.3767 79.9141C85.2357 80.2539 85.0145 80.5425 84.7131 80.7797C84.4182 81.017 84.0847 81.1965 83.7128 81.3183C83.3474 81.4402 82.9851 81.5011 82.626 81.5011C82.1451 81.5011 81.7059 81.4017 81.3083 81.2029C80.9108 80.9977 80.5678 80.7284 80.2792 80.395C79.9907 80.0552 79.7663 79.6769 79.606 79.2601C79.4457 78.8369 79.3655 78.4105 79.3655 77.9809ZM85.8558 77.9809C85.8558 77.5641 85.9295 77.157 86.077 76.7594C86.2245 76.3555 86.4393 75.99 86.7214 75.663C87.0099 75.3295 87.3594 75.0666 87.7697 74.8743C88.1801 74.6755 88.645 74.5761 89.1643 74.5761C89.7799 74.5761 90.3121 74.7172 90.7609 74.9993C91.2098 75.275 91.5432 75.6309 91.7612 76.0669L90.9148 76.6344C90.7866 76.3587 90.6231 76.1407 90.4243 75.9804C90.2319 75.8201 90.0203 75.7078 89.7895 75.6437C89.5651 75.5796 89.3439 75.5475 89.1259 75.5475C88.7668 75.5475 88.4526 75.6213 88.1833 75.7688C87.914 75.9098 87.6864 76.099 87.5004 76.3362C87.3209 76.5735 87.183 76.8396 87.0869 77.1345C86.9971 77.4295 86.9522 77.7244 86.9522 78.0194C86.9522 78.3464 87.0067 78.6638 87.1157 78.9715C87.2247 79.2729 87.3754 79.5422 87.5678 79.7795C87.7665 80.0103 88.0006 80.193 88.2699 80.3277C88.5392 80.4623 88.8341 80.5297 89.1547 80.5297C89.3727 80.5297 89.6004 80.4912 89.8376 80.4142C90.0748 80.3373 90.2929 80.2187 90.4916 80.0584C90.6968 79.8917 90.8571 79.6737 90.9725 79.4043L91.867 79.9141C91.7259 80.2539 91.5047 80.5425 91.2034 80.7797C90.9084 81.017 90.575 81.1965 90.2031 81.3183C89.8376 81.4402 89.4753 81.5011 89.1163 81.5011C88.6354 81.5011 88.1961 81.4017 87.7986 81.2029C87.4011 80.9977 87.058 80.7284 86.7695 80.395C86.4809 80.0552 86.2565 79.6769 86.0962 79.2601C85.9359 78.8369 85.8558 78.4105 85.8558 77.9809ZM95.6161 81.4914C95.1224 81.4914 94.6768 81.3953 94.2792 81.2029C93.8817 81.0106 93.5386 80.7509 93.2501 80.4239C92.9616 80.0904 92.7371 79.7185 92.5768 79.3082C92.423 78.8914 92.346 78.465 92.346 78.029C92.346 77.5737 92.4294 77.1409 92.5961 76.7306C92.7628 76.3138 92.9936 75.9451 93.2886 75.6245C93.5835 75.2975 93.9298 75.041 94.3273 74.8551C94.7313 74.6627 95.1673 74.5665 95.6354 74.5665C96.1227 74.5665 96.5651 74.6659 96.9626 74.8647C97.3666 75.0634 97.7096 75.3295 97.9918 75.663C98.2803 75.9964 98.5015 76.3683 98.6554 76.7786C98.8157 77.189 98.8958 77.609 98.8958 78.0386C98.8958 78.4938 98.8125 78.9299 98.6458 79.3466C98.4855 79.757 98.2579 80.1257 97.9629 80.4527C97.668 80.7733 97.3185 81.0266 96.9145 81.2125C96.517 81.3985 96.0842 81.4914 95.6161 81.4914ZM93.4425 78.029C93.4425 78.3496 93.4938 78.6606 93.5963 78.9619C93.6989 79.2633 93.8432 79.5326 94.0292 79.7698C94.2215 80.0007 94.4523 80.1834 94.7217 80.3181C94.991 80.4527 95.2923 80.52 95.6257 80.52C95.972 80.52 96.2798 80.4495 96.5491 80.3084C96.8184 80.1674 97.0428 79.9782 97.2223 79.741C97.4083 79.4973 97.5493 79.228 97.6455 78.9331C97.7417 78.6317 97.7898 78.3303 97.7898 78.029C97.7898 77.7084 97.7385 77.4006 97.6359 77.1057C97.5397 76.8043 97.3954 76.5382 97.2031 76.3074C97.0107 76.0701 96.7799 75.8842 96.5106 75.7495C96.2477 75.6149 95.9528 75.5475 95.6257 75.5475C95.2795 75.5475 94.9717 75.6181 94.7024 75.7591C94.4331 75.9002 94.2055 76.0894 94.0195 76.3266C93.8336 76.5638 93.6893 76.8299 93.5867 77.1249C93.4906 77.4198 93.4425 77.7212 93.4425 78.029ZM105.137 82.7418V81.4434H100.011V74.6146H101.088V80.4912H104.137V74.6146H105.224V80.4912H106.09V82.7418H105.137ZM107.235 81.4434V74.6146H108.312V79.9237L111.958 74.6146H112.967V81.4434H111.89V76.2208L108.283 81.4434H107.235ZM116.522 74.6146H117.542L120.196 81.4434H119.062L118.34 79.5871H115.705L114.993 81.4434H113.849L116.522 74.6146ZM118.129 78.7888L117.032 75.7976L115.897 78.7888H118.129ZM126.167 82.7418V81.4434H121.041V74.6146H122.118V80.4912H125.167V74.6146H126.254V80.4912H127.12V82.7418H126.167ZM128.265 81.4434V74.6146H129.342V79.9237L132.987 74.6146H133.997V81.4434H132.92V76.2208L129.313 81.4434H128.265ZM135.388 81.4434L137.12 78.6445C136.671 78.5163 136.321 78.2758 136.071 77.9232C135.821 77.5705 135.696 77.1537 135.696 76.6728C135.696 76.2817 135.789 75.9323 135.975 75.6245C136.167 75.3167 136.433 75.0731 136.773 74.8935C137.113 74.7076 137.507 74.6146 137.956 74.6146H140.428V81.4434H139.351V78.7792H138.466C138.428 78.7792 138.386 78.7792 138.341 78.7792C138.303 78.7792 138.264 78.7792 138.226 78.7792L136.629 81.4434H135.388ZM138.072 77.8462H139.351V75.5475H138.101C137.857 75.5475 137.636 75.5924 137.437 75.6822C137.238 75.7656 137.081 75.8906 136.966 76.0573C136.857 76.224 136.802 76.4292 136.802 76.6728C136.802 76.9165 136.853 77.1249 136.956 77.298C137.059 77.4711 137.203 77.6058 137.389 77.702C137.581 77.7981 137.809 77.8462 138.072 77.8462ZM4.22731 103.785C3.77135 103.785 3.34388 103.693 2.94492 103.507C2.54595 103.336 2.22535 103.094 1.98312 102.781C1.74089 102.453 1.61977 102.083 1.61977 101.669C1.61977 101.228 1.74801 100.822 2.00449 100.451C2.26097 100.081 2.67419 99.8954 3.24414 99.8954C3.7286 99.8954 4.09195 100.031 4.33418 100.301C4.59066 100.558 4.7189 100.864 4.7189 101.221C4.7189 101.377 4.6904 101.534 4.6334 101.691C4.59066 101.847 4.51229 102.004 4.3983 102.161C4.4268 102.204 4.46242 102.239 4.50516 102.268C4.56216 102.296 4.62628 102.311 4.69752 102.311C5.06799 102.311 5.45984 102.033 5.87305 101.477C6.00129 101.292 6.12241 101.099 6.2364 100.9C6.35039 100.7 6.4715 100.458 6.59974 100.173C6.72798 99.874 6.8776 99.5107 7.04858 99.0832C7.21957 98.6415 7.41905 98.1072 7.64703 97.4802C7.88926 96.839 8.17424 96.0696 8.50196 95.1719C8.82969 94.2742 9.21441 93.2198 9.65612 92.0087C9.81286 91.6097 9.96247 91.2392 10.105 90.8973C10.2474 90.5553 10.4113 90.2703 10.5965 90.0423L8.9508 90.1278V88.4821H13.5888V89.8927C13.2611 89.8927 12.9761 89.9497 12.7339 90.0637C12.4916 90.1634 12.2708 90.3629 12.0713 90.6621C11.8718 90.9471 11.6652 91.3675 11.4515 91.9232L8.33098 100.152C7.93201 101.192 7.50455 101.976 7.04858 102.503C6.59262 103.016 6.12241 103.358 5.63795 103.529C5.16774 103.7 4.69752 103.785 4.22731 103.785ZM7.06996 100.088L2.00449 92.1583C1.80501 91.8306 1.61977 91.4601 1.44879 91.0469C1.2778 90.6194 1.19231 90.2917 1.19231 90.0637L0.145019 90.1278V88.4821H6.45013V89.8927C6.03691 89.8642 5.69494 89.907 5.42421 90.021C5.15349 90.1349 4.98962 90.3202 4.93263 90.5767C4.87563 90.8189 4.96113 91.1395 5.18911 91.5385L6.96309 94.6162C7.17682 94.9724 7.42618 95.3714 7.71115 95.8131C7.99613 96.2548 8.20274 96.5968 8.33098 96.839L7.06996 100.088ZM21.4585 103.785C20.7746 103.785 20.0407 103.714 19.2571 103.572C18.4734 103.443 17.6968 103.151 16.9274 102.695C16.1722 102.239 15.4669 101.534 14.8114 100.579L15.8587 99.6817C16.4572 100.508 17.1696 101.114 17.996 101.498C18.8367 101.869 19.7273 102.054 20.6677 102.054C21.2376 102.054 21.7791 101.954 22.2921 101.755C22.8193 101.555 23.2467 101.242 23.5745 100.814C23.9022 100.387 24.066 99.8313 24.066 99.1473C24.066 98.5631 23.9449 98.0644 23.7027 97.6512C23.4747 97.238 23.1755 96.9245 22.805 96.7108C22.4345 96.497 22.0427 96.3902 21.6295 96.3902H18.9151V94.8727H20.8387C21.4229 94.8727 21.8931 94.7587 22.2493 94.5307C22.6198 94.3027 22.8905 93.9964 23.0615 93.6117C23.2325 93.2127 23.318 92.771 23.318 92.2865C23.318 91.4031 23.1185 90.7476 22.7195 90.3202C22.3206 89.8927 21.7292 89.679 20.9455 89.679C20.0051 89.679 19.2571 89.9853 18.7014 90.598C18.1599 91.1965 17.7324 92.087 17.419 93.2697H16.0297V88.2897H17.6754L17.5899 89.2515C18.1456 88.9665 18.6301 88.7457 19.0433 88.5889C19.4565 88.418 19.8555 88.304 20.2402 88.247C20.6392 88.1757 21.088 88.1401 21.5867 88.1401C22.6127 88.1116 23.489 88.2612 24.2157 88.5889C24.9566 88.9024 25.5194 89.3441 25.9041 89.9141C26.2889 90.484 26.4812 91.1252 26.4812 91.8377C26.4812 92.6641 26.2105 93.3837 25.669 93.9964C25.1276 94.5948 24.3724 95.0437 23.4035 95.3429V95.407C24.7144 95.6065 25.7118 96.034 26.3957 96.6894C27.0939 97.3306 27.443 98.157 27.443 99.1687C27.443 99.8811 27.2649 100.529 26.9087 101.114C26.5667 101.684 26.1036 102.175 25.5194 102.588C24.9495 102.987 24.3083 103.287 23.5958 103.486C22.8976 103.7 22.1852 103.8 21.4585 103.785ZM40.169 93.3124C40.169 92.543 40.0621 91.9089 39.8484 91.4102C39.6346 90.8973 39.3283 90.5197 38.9293 90.2774C38.5446 90.021 38.0815 89.8998 37.54 89.9141H36.5141V99.9381C36.5141 100.323 36.507 100.693 36.4928 101.05C36.4785 101.406 36.4571 101.677 36.4286 101.862C36.6709 101.833 36.9772 101.819 37.3477 101.819C37.7324 101.805 37.996 101.798 38.1385 101.798V103.443H31.8975V102.033C32.2252 102.018 32.496 101.976 32.7097 101.904C32.9377 101.833 33.1087 101.669 33.2226 101.413C33.3509 101.156 33.415 100.743 33.415 100.173V89.9355H32.4318C31.6197 89.9497 30.9785 90.2276 30.5082 90.769C30.038 91.3105 29.8029 92.1583 29.8029 93.3124H28.3923L28.4992 88.4821H41.4514L41.5796 93.3124H40.169ZM50.2869 98.2924C50.2869 97.694 50.1942 97.2665 50.009 97.01C49.8238 96.7393 49.5673 96.5683 49.2396 96.497C48.9261 96.4258 48.577 96.3973 48.1923 96.4116L47.6366 96.4329V99.9381C47.6366 100.323 47.6294 100.686 47.6152 101.028C47.601 101.37 47.5796 101.634 47.5511 101.819H50.4151C50.8426 101.819 51.2558 101.726 51.6547 101.541C52.0537 101.342 52.3814 101.021 52.6379 100.579C52.8944 100.123 53.0226 99.5107 53.0226 98.7412H54.4119L54.305 103.443H43.0199V102.033C43.3477 102.018 43.6184 101.976 43.8321 101.904C44.0601 101.833 44.2311 101.669 44.3451 101.413C44.4733 101.156 44.5375 100.743 44.5375 100.173V91.9873C44.5375 91.6026 44.5446 91.2321 44.5588 90.8759C44.5873 90.5197 44.6087 90.2489 44.6229 90.0637C44.395 90.0779 44.11 90.0922 43.768 90.1064C43.426 90.1064 43.1767 90.1136 43.0199 90.1278V88.4821H53.7066L53.8348 92.6285H52.4242C52.4242 91.8448 52.2888 91.2535 52.0181 90.8545C51.7474 90.4555 51.4125 90.1919 51.0136 90.0637C50.6146 89.9212 50.2227 89.8571 49.838 89.8713L49.0686 89.8927C48.7694 89.8927 48.5129 89.9355 48.2991 90.021C48.0854 90.0922 47.9216 90.2632 47.8076 90.5339C47.6936 90.7904 47.6366 91.1965 47.6366 91.7522V94.9582H50.1372L50.0518 93.0987H51.6975V98.2924H50.2869ZM56.3574 103.443V102.033C56.6851 102.018 56.9558 101.976 57.1696 101.904C57.3975 101.833 57.5685 101.669 57.6825 101.413C57.8107 101.156 57.8749 100.743 57.8749 100.173V91.9873C57.8749 91.6026 57.882 91.2321 57.8962 90.8759C57.9247 90.5197 57.9461 90.2489 57.9604 90.0637C57.7324 90.0779 57.4474 90.0922 57.1054 90.1064C56.7635 90.1064 56.5141 90.1136 56.3574 90.1278V88.4821H62.4915V89.8927C62.178 89.907 61.9073 89.9497 61.6793 90.021C61.4513 90.0922 61.2732 90.2561 61.145 90.5125C61.031 90.7548 60.974 91.168 60.974 91.7522V95.0009H62.5129L64.1586 92.201C64.4008 91.7736 64.6573 91.3461 64.928 90.9186C65.1988 90.4912 65.4268 90.1991 65.612 90.0423C65.384 90.0566 65.1418 90.0708 64.8853 90.0851C64.6288 90.0993 64.4222 90.1136 64.2655 90.1278V88.4821H69.5019V89.8927C69.1884 89.907 68.8465 89.964 68.476 90.0637C68.1198 90.1634 67.7493 90.3629 67.3646 90.6621C66.9799 90.9614 66.588 91.4316 66.1891 92.0728L64.1372 95.3643C64.4222 95.5495 64.6716 95.749 64.8853 95.9627C65.1133 96.1622 65.3128 96.3831 65.4838 96.6253L67.6852 99.7244C67.9702 100.123 68.2623 100.501 68.5615 100.857C68.875 101.199 69.1956 101.477 69.5233 101.691C69.851 101.904 70.1716 102.018 70.4851 102.033V103.443H67.1936C67.0796 103.429 66.8944 103.301 66.6379 103.059C66.3814 102.816 66.1107 102.524 65.8257 102.182C65.5407 101.84 65.2985 101.534 65.099 101.263L62.9831 98.1855C62.7978 97.9148 62.5912 97.637 62.3633 97.352C62.1495 97.067 61.9429 96.8533 61.7434 96.7108H60.974V99.9381C60.974 100.323 60.9669 100.693 60.9526 101.05C60.9384 101.406 60.917 101.677 60.8885 101.862C61.1165 101.833 61.4015 101.819 61.7434 101.819C62.0997 101.805 62.349 101.798 62.4915 101.798V103.443H56.3574ZM81.7253 93.2697C81.54 92.087 81.1411 91.1965 80.5284 90.598C79.9299 89.9996 79.132 89.6932 78.1345 89.679C77.3936 89.679 76.7453 89.85 76.1896 90.1919C75.6339 90.5339 75.1708 90.9899 74.8003 91.5598C74.4441 92.1298 74.1734 92.7781 73.9881 93.5048C73.8172 94.2315 73.7317 94.9795 73.7317 95.749C73.7317 96.9744 73.9026 98.0644 74.2446 99.0191C74.6008 99.9595 75.1138 100.7 75.7835 101.242C76.4532 101.783 77.2654 102.054 78.22 102.054C79.1177 102.054 80.0083 101.826 80.8917 101.37C81.7751 100.9 82.5161 100.252 83.1145 99.4252L84.1404 100.366C83.4422 101.32 82.7084 102.047 81.939 102.546C81.1696 103.03 80.4144 103.358 79.6734 103.529C78.9467 103.7 78.2913 103.785 77.7071 103.785C76.6099 103.785 75.6125 103.593 74.7148 103.208C73.8172 102.809 73.0406 102.268 72.3851 101.584C71.7439 100.886 71.2452 100.081 70.889 99.1687C70.547 98.2425 70.3761 97.2451 70.3761 96.1765C70.3761 95.2075 70.5328 94.2457 70.8463 93.2911C71.1597 92.3364 71.6228 91.4743 72.2355 90.7049C72.8625 89.9212 73.6462 89.3014 74.5866 88.8454C75.527 88.3752 76.617 88.1401 77.8567 88.1401C78.4124 88.1401 79.018 88.2327 79.6734 88.418C80.3431 88.5889 80.9701 88.8454 81.5543 89.1874L81.4688 88.2897H83.1145V93.2697H81.7253ZM96.4616 93.3124C96.4616 92.543 96.3548 91.9089 96.141 91.4102C95.9273 90.8973 95.6209 90.5197 95.222 90.2774C94.8373 90.021 94.3742 89.8998 93.8327 89.9141H92.8068V99.9381C92.8068 100.323 92.7997 100.693 92.7854 101.05C92.7712 101.406 92.7498 101.677 92.7213 101.862C92.9635 101.833 93.2699 101.819 93.6403 101.819C94.0251 101.805 94.2887 101.798 94.4312 101.798V103.443H88.1902V102.033C88.5179 102.018 88.7886 101.976 89.0024 101.904C89.2303 101.833 89.4013 101.669 89.5153 101.413C89.6435 101.156 89.7077 100.743 89.7077 100.173V89.9355H88.7245C87.9123 89.9497 87.2711 90.2276 86.8009 90.769C86.3307 91.3105 86.0956 92.1583 86.0956 93.3124H84.685L84.7918 88.4821H97.744L97.8723 93.3124H96.4616ZM105.447 89.8927C105.133 89.907 104.863 89.9497 104.635 90.021C104.407 90.0922 104.228 90.2561 104.1 90.5125C103.986 90.7548 103.929 91.168 103.929 91.7522V99.9381C103.929 100.323 103.922 100.693 103.908 101.05C103.894 101.406 103.872 101.677 103.844 101.862C104.072 101.833 104.357 101.819 104.699 101.819C105.055 101.805 105.304 101.798 105.447 101.798V103.443H99.3126V102.033C99.6403 102.018 99.9111 101.976 100.125 101.904C100.353 101.833 100.524 101.669 100.638 101.413C100.766 101.156 100.83 100.743 100.83 100.173V91.9873C100.83 91.6026 100.837 91.2321 100.851 90.8759C100.88 90.5197 100.901 90.2489 100.916 90.0637C100.688 90.0779 100.403 90.0922 100.061 90.1064C99.7187 90.1064 99.4694 90.1136 99.3126 90.1278V88.4821H105.447V89.8927ZM114.68 89.8927C114.367 89.907 114.096 89.9497 113.868 90.021C113.64 90.0922 113.462 90.2561 113.333 90.5125C113.219 90.7548 113.162 91.168 113.162 91.7522V99.9381C113.162 100.323 113.155 100.693 113.141 101.05C113.127 101.406 113.105 101.677 113.077 101.862C113.305 101.833 113.59 101.819 113.932 101.819C114.288 101.805 114.538 101.798 114.68 101.798V103.443H108.546V102.033C108.874 102.018 109.144 101.976 109.358 101.904C109.586 101.833 109.757 101.669 109.871 101.413C109.999 101.156 110.063 100.743 110.063 100.173V91.9873C110.063 91.6026 110.07 91.2321 110.085 90.8759C110.113 90.5197 110.135 90.2489 110.149 90.0637C109.921 90.0779 109.636 90.0922 109.294 90.1064C108.952 90.1064 108.703 90.1136 108.546 90.1278V88.4821H114.68V89.8927ZM111.709 89.1233L112.735 90.1492L102.07 102.824L100.98 101.733L111.709 89.1233ZM118.748 103.785C117.979 103.785 117.359 103.621 116.889 103.294C116.433 102.966 116.205 102.496 116.205 101.883C116.205 101.384 116.34 100.95 116.611 100.579C116.896 100.195 117.345 100.002 117.957 100.002C118.456 100.002 118.819 100.138 119.047 100.408C119.275 100.679 119.389 101.007 119.389 101.392C119.389 101.634 119.332 101.833 119.218 101.99C119.29 102.033 119.396 102.054 119.539 102.054C119.738 102.054 119.973 101.876 120.244 101.52C120.515 101.164 120.779 100.608 121.035 99.8527C121.306 99.0832 121.541 98.1 121.74 96.9031C121.94 95.692 122.061 94.2386 122.104 92.543L122.168 90.0637L121.633 90.0851L119.71 90.1278V88.4821H131.508V89.8927C131.194 89.907 130.924 89.9497 130.696 90.021C130.468 90.0922 130.29 90.2561 130.161 90.5125C130.047 90.7548 129.99 91.168 129.99 91.7522V99.9381C129.99 100.323 129.983 100.693 129.969 101.05C129.955 101.406 129.933 101.677 129.905 101.862C130.147 101.833 130.439 101.819 130.781 101.819C131.123 101.805 131.365 101.798 131.508 101.798V103.443H125.374V102.033C125.702 102.018 125.972 101.976 126.186 101.904C126.414 101.833 126.585 101.669 126.699 101.413C126.827 101.156 126.891 100.743 126.891 100.173V90.0851L125.181 90.1492C124.697 90.1634 124.341 90.2632 124.113 90.4484C123.885 90.6194 123.764 90.94 123.749 91.4102C123.707 93.2483 123.586 94.8584 123.386 96.2406C123.201 97.6227 122.952 98.7982 122.638 99.7672C122.325 100.722 121.961 101.498 121.548 102.097C121.135 102.681 120.686 103.109 120.201 103.379C119.731 103.65 119.247 103.785 118.748 103.785ZM139.782 89.8927C139.468 89.907 139.198 89.9497 138.97 90.021C138.742 90.0922 138.563 90.2561 138.435 90.5125C138.321 90.7548 138.264 91.168 138.264 91.7522V94.7444L139.44 94.7017C140.722 94.6589 141.762 94.7587 142.56 95.0009C143.372 95.2432 143.992 95.5851 144.42 96.0268C144.861 96.4686 145.168 96.9673 145.339 97.523C145.51 98.0644 145.595 98.6201 145.595 99.1901C145.595 100.116 145.367 100.9 144.911 101.541C144.47 102.168 143.857 102.645 143.073 102.973C142.29 103.287 141.399 103.443 140.402 103.443H133.648V102.033C133.975 102.018 134.246 101.976 134.46 101.904C134.688 101.833 134.859 101.669 134.973 101.413C135.101 101.156 135.165 100.743 135.165 100.173V91.9873C135.165 91.6026 135.172 91.2321 135.186 90.8759C135.215 90.5197 135.236 90.2489 135.251 90.0637C135.023 90.0779 134.738 90.0922 134.396 90.1064C134.054 90.1064 133.804 90.1136 133.648 90.1278V88.4821H139.782V89.8927ZM138.264 100.045C138.264 100.43 138.257 100.793 138.243 101.135C138.229 101.477 138.207 101.741 138.179 101.926C138.35 101.926 138.521 101.926 138.692 101.926C138.877 101.926 139.055 101.926 139.226 101.926C139.397 101.912 139.568 101.904 139.739 101.904C140.608 101.862 141.235 101.584 141.62 101.071C142.019 100.544 142.218 99.8598 142.218 99.0191C142.218 98.3067 142.097 97.7509 141.855 97.352C141.627 96.953 141.306 96.668 140.893 96.497C140.48 96.3261 140.003 96.2406 139.461 96.2406C139.262 96.2406 139.062 96.2406 138.863 96.2406C138.663 96.2406 138.464 96.2548 138.264 96.2833V100.045ZM147.194 103.443V102.033C147.521 102.018 147.792 101.976 148.006 101.904C148.234 101.833 148.405 101.669 148.519 101.413C148.647 101.156 148.711 100.743 148.711 100.173V91.9873C148.711 91.6026 148.718 91.2321 148.733 90.8759C148.761 90.5197 148.782 90.2489 148.797 90.0637C148.569 90.0779 148.284 90.0922 147.942 90.1064C147.6 90.1064 147.35 90.1136 147.194 90.1278V88.4821H161.984V89.8927C161.671 89.907 161.4 89.9497 161.172 90.021C160.944 90.0922 160.766 90.2561 160.638 90.5125C160.524 90.7548 160.467 91.168 160.467 91.7522V99.9381C160.467 100.323 160.459 100.693 160.445 101.05C160.431 101.406 160.41 101.677 160.381 101.862C160.609 101.833 160.894 101.819 161.236 101.819C161.592 101.805 161.842 101.798 161.984 101.798V103.443H155.85V102.033C156.178 102.018 156.448 101.976 156.662 101.904C156.89 101.833 157.061 101.669 157.175 101.413C157.303 101.156 157.367 100.743 157.367 100.173V90.0851L153.285 90.1492C152.972 90.1634 152.701 90.2062 152.473 90.2774C152.259 90.3487 152.095 90.5125 151.981 90.769C151.867 91.0255 151.81 91.4387 151.81 92.0087V99.9381C151.81 100.323 151.803 100.693 151.789 101.05C151.775 101.406 151.753 101.677 151.725 101.862C151.953 101.833 152.238 101.819 152.58 101.819C152.936 101.805 153.185 101.798 153.328 101.798V103.443H147.194ZM164.121 102.033C164.449 102.018 164.72 101.976 164.933 101.904C165.161 101.833 165.332 101.669 165.446 101.413C165.575 101.156 165.639 100.743 165.639 100.173V91.9873C165.639 91.6026 165.646 91.2321 165.66 90.8759C165.689 90.5197 165.71 90.2489 165.724 90.0637C165.496 90.0779 165.211 90.0922 164.869 90.1064C164.527 90.1064 164.278 90.1136 164.121 90.1278V88.4821C165.133 88.4678 166.145 88.4607 167.156 88.4607C168.168 88.4607 169.18 88.4536 170.191 88.4393C171.445 88.4251 172.535 88.5889 173.461 88.9309C174.402 89.2729 175.121 89.8001 175.62 90.5125C176.133 91.225 176.375 92.1512 176.347 93.2911C176.332 93.861 176.197 94.4238 175.941 94.9795C175.684 95.521 175.307 96.0197 174.808 96.4757C174.309 96.9174 173.682 97.2807 172.927 97.5657C172.172 97.8507 171.288 98.0074 170.277 98.0359C169.963 98.0502 169.685 98.0573 169.443 98.0573C169.215 98.0573 168.98 98.0502 168.738 98.0359V99.9168C168.738 100.316 168.731 100.693 168.716 101.05C168.702 101.406 168.681 101.677 168.652 101.862C168.809 101.847 169.009 101.84 169.251 101.84C169.493 101.826 169.728 101.819 169.956 101.819C170.198 101.805 170.369 101.798 170.469 101.798V103.443H164.121V102.033ZM168.738 96.4329C168.895 96.4472 169.051 96.4614 169.208 96.4757C169.365 96.4899 169.529 96.497 169.7 96.497C170.483 96.497 171.117 96.3688 171.602 96.1123C172.101 95.8416 172.464 95.4569 172.692 94.9582C172.92 94.4452 173.034 93.8254 173.034 93.0987C173.034 92.3863 172.934 91.8163 172.735 91.3888C172.549 90.9614 172.307 90.6479 172.008 90.4484C171.709 90.2347 171.395 90.0993 171.067 90.0423C170.74 89.9711 170.441 89.9355 170.17 89.9355C169.871 89.9355 169.614 89.9711 169.4 90.0423C169.187 90.1136 169.023 90.2703 168.909 90.5125C168.795 90.7548 168.738 91.1252 168.738 91.6239V96.4329ZM184.889 103.785C183.535 103.785 182.381 103.557 181.427 103.101C180.486 102.645 179.724 102.04 179.14 101.285C178.555 100.515 178.128 99.6674 177.857 98.7412C177.586 97.8151 177.451 96.8889 177.451 95.9627C177.451 95.065 177.601 94.1602 177.9 93.2483C178.213 92.3221 178.676 91.4743 179.289 90.7049C179.916 89.9355 180.7 89.3156 181.64 88.8454C182.581 88.3752 183.685 88.1401 184.953 88.1401C186.25 88.1401 187.368 88.3752 188.309 88.8454C189.249 89.3156 190.019 89.9426 190.617 90.7263C191.215 91.4957 191.657 92.3364 191.942 93.2483C192.241 94.1602 192.391 95.065 192.391 95.9627C192.391 96.8461 192.234 97.7438 191.921 98.6557C191.622 99.5677 191.158 100.415 190.532 101.199C189.919 101.969 189.142 102.596 188.202 103.08C187.261 103.55 186.157 103.785 184.889 103.785ZM185.124 102.225C185.865 102.225 186.485 102.047 186.984 101.691C187.482 101.32 187.881 100.843 188.18 100.259C188.48 99.6745 188.693 99.0405 188.822 98.3565C188.95 97.6583 189.014 96.9815 189.014 96.3261C189.014 95.3429 188.929 94.4452 188.758 93.633C188.587 92.8208 188.323 92.1227 187.967 91.5385C187.611 90.94 187.155 90.484 186.599 90.1706C186.057 89.8428 185.416 89.6861 184.675 89.7004C183.949 89.7146 183.336 89.9141 182.837 90.2988C182.338 90.6693 181.939 91.1537 181.64 91.7522C181.341 92.3364 181.127 92.9776 180.999 93.6758C180.871 94.374 180.807 95.0508 180.807 95.7062C180.807 96.3759 180.878 97.0884 181.02 97.8436C181.177 98.5988 181.419 99.3112 181.747 99.9809C182.075 100.651 182.517 101.192 183.072 101.605C183.628 102.018 184.312 102.225 185.124 102.225ZM201.85 103.657C201.365 102.474 200.881 101.299 200.396 100.131C199.926 98.9621 199.449 97.7937 198.964 96.6253C198.85 96.3546 198.701 95.977 198.516 95.4925C198.345 94.9938 198.159 94.4238 197.96 93.7826C197.775 93.1414 197.604 92.4789 197.447 91.7949C197.475 92.5929 197.497 93.3481 197.511 94.0605C197.525 94.7587 197.525 95.4284 197.511 96.0696C197.511 96.3831 197.511 96.7037 197.511 97.0314C197.511 97.3591 197.504 97.6868 197.49 98.0146C197.49 98.328 197.49 98.6486 197.49 98.9763C197.49 99.2898 197.49 99.6104 197.49 99.9381C197.49 100.323 197.475 100.693 197.447 101.05C197.433 101.406 197.411 101.677 197.383 101.862C197.625 101.833 197.917 101.819 198.259 101.819C198.615 101.805 198.865 101.798 199.007 101.798V103.443H194.134V102.033C194.462 102.018 194.733 101.976 194.946 101.904C195.174 101.833 195.345 101.669 195.459 101.413C195.587 101.156 195.652 100.743 195.652 100.173L195.78 91.9873C195.794 91.6026 195.808 91.2321 195.823 90.8759C195.837 90.5197 195.851 90.2489 195.865 90.0637C195.637 90.0779 195.352 90.0922 195.01 90.1064C194.668 90.1064 194.419 90.1136 194.262 90.1278V88.4821H198.986L202.213 96.7535C202.341 97.0813 202.484 97.466 202.641 97.9077C202.797 98.3351 202.947 98.7555 203.089 99.1687C203.232 99.5677 203.339 99.8883 203.41 100.131H203.431C203.617 99.6318 203.788 99.1473 203.944 98.6771C204.101 98.2069 204.265 97.7509 204.436 97.3092C204.992 95.8274 205.54 94.3526 206.082 92.885C206.637 91.4173 207.193 89.9497 207.749 88.4821H212.686V89.8927C212.373 89.907 212.095 89.9497 211.853 90.021C211.61 90.0922 211.425 90.2561 211.297 90.5125C211.183 90.7548 211.133 91.168 211.147 91.7522L211.468 99.9381C211.496 100.323 211.496 100.693 211.468 101.05C211.439 101.406 211.411 101.677 211.382 101.862C211.625 101.833 211.917 101.819 212.259 101.819C212.615 101.805 212.864 101.798 213.007 101.798V103.443H207.065V102.033C207.393 102.018 207.67 101.976 207.898 101.904C208.141 101.833 208.319 101.669 208.433 101.413C208.561 101.156 208.611 100.743 208.582 100.173L208.411 95.6421C208.411 95.4711 208.397 95.179 208.369 94.7658C208.34 94.3383 208.312 93.8753 208.283 93.3766C208.269 92.8636 208.255 92.3863 208.24 91.9445C208.198 92.0443 208.155 92.144 208.112 92.2438C208.069 92.3293 208.034 92.4219 208.005 92.5216L203.838 103.657H201.85Z" fill="#128CDB"/>
</svg>
